<svg width="860" height="262" viewBox="0 0 860 262" fill="none" xmlns="http://www.w3.org/2000/svg">
<path fill-rule="evenodd" clip-rule="evenodd" d="M182.625 19.3111C186.512 18.6962 190.488 17.9868 194.503 17.2704C201.208 16.0742 208.023 14.8582 214.724 14.0284L215.644 13.8927C226.675 12.2659 237.415 10.6819 248.504 10.3208C259.249 9.97095 270.363 10.913 281.162 12.1912C289.996 13.2075 293.379 17.0089 295.294 25.7478C296.072 29.634 296.851 33.5203 297.944 37.0704C300.438 47.3879 292.746 49.5342 284.945 51.7111C279.785 53.1509 274.577 54.604 272.237 58.4434C269.2 55.2826 266.142 51.4705 263.421 47.9735L263.417 47.9738L263.417 47.9739C244.9 49.8806 226.383 51.7873 207.877 54.0196C203.01 54.6029 198.29 55.4583 193.528 56.3213C190.984 56.7826 188.427 57.2459 185.83 57.6711C180.478 58.4973 175.043 59.2447 169.607 59.9921L169.606 59.9922C164.171 60.7396 158.735 61.487 153.384 62.3132C153.141 62.37 152.876 62.4276 152.599 62.4877L152.598 62.488L152.596 62.4884L152.596 62.4884C151.029 62.8289 149.079 63.2527 148.553 64.1003C145.508 70.7188 140.298 70.8884 134.101 70.7642C136.087 71.6775 138.083 72.9163 141.077 74.7746L141.077 74.7747C138.669 78.3896 136.347 82.0016 133.937 85.7514L133.935 85.7553L133.931 85.7607L133.929 85.7639L133.927 85.7669L133.926 85.7697L133.924 85.7723L133.922 85.7747L133.922 85.7751L133.922 85.7755L133.92 85.7777L133.92 85.7779L133.919 85.7796L133.919 85.7806L133.915 85.7862L133.914 85.7878L133.912 85.791L133.91 85.794L133.907 85.7994L133.903 85.8055C131.659 89.2971 129.338 92.9087 126.798 96.7536L140.149 96.3189C144.755 96.1689 149.398 95.8462 154.054 95.5226C162.233 94.9542 170.448 94.3832 178.562 94.7422C187.049 95.1178 190.663 95.9781 192.619 106.019C192.813 106.877 192.991 107.646 193.152 108.344L193.156 108.36L193.156 108.361C194.572 114.496 194.702 115.063 193.422 120.662C192.865 120.271 192.254 119.997 191.682 119.739C190.885 119.38 190.164 119.055 189.766 118.499C186.729 115.338 183.148 115.455 179.24 115.582C175.275 115.828 171.333 116.168 167.41 116.578L167.364 115.166L163.331 115.297L163.388 117.024L163.387 117.024L163.331 115.297L163.331 115.297L163.2 111.265L159.167 111.396L159.299 115.429L159.298 115.428L159.366 117.515C149.672 118.752 140.061 120.332 130.433 121.916L130.432 121.916L130.432 121.916L130.431 121.916L130.43 121.916L130.429 121.916L130.429 121.917L130.428 121.917L130.427 121.917L130.426 121.917L130.425 121.917L130.425 121.917L130.424 121.917C124.965 122.815 119.5 123.714 114.012 124.551C112.059 124.615 109.16 125.687 107.91 127.358C100.199 140.224 92.4962 153.331 84.4001 167.107L84.3887 167.127C83.0748 169.362 81.7505 171.616 80.4141 173.889C83.7134 173.402 86.8744 172.893 89.9382 172.399L89.9402 172.399L89.9416 172.399L89.9429 172.398C97.4213 171.193 104.321 170.082 111.242 169.625C114.6 169.298 117.957 168.963 121.314 168.627C138.102 166.949 154.889 165.27 171.713 164.723C185.702 164.267 199.719 164.692 213.638 165.114L213.638 165.114L213.639 165.114L213.639 165.114L213.639 165.114L213.639 165.114L213.639 165.114L213.64 165.114L213.64 165.114L213.64 165.114L213.64 165.114L213.641 165.114L213.641 165.114L213.641 165.114L213.641 165.114L213.641 165.114L213.642 165.114L213.642 165.114L213.642 165.114L213.642 165.114L213.643 165.114L213.643 165.114L213.643 165.114L213.643 165.114L213.644 165.114L213.644 165.114L213.644 165.114L213.644 165.114L213.644 165.114L213.645 165.114L213.645 165.114C220.459 165.321 227.25 165.527 234.002 165.628C235.708 165.573 237.173 165.773 238.825 165.999L238.825 165.999L239.24 166.056C239.346 166.07 239.452 166.085 239.559 166.099C248.73 167.43 255.054 171.462 256.36 181.525C256.52 183.134 257.071 184.731 257.625 186.339L257.625 186.339C258.75 189.601 259.892 192.911 257.824 196.471C247.362 195.508 237.877 194.513 228.055 193.203C222.993 197.709 218.98 194.987 215.114 192.365L215.113 192.364C214.625 192.033 214.139 191.704 213.653 191.39C208.673 188.619 204.168 190.395 200.009 192.812C199.449 193.133 198.893 193.46 198.338 193.786L198.338 193.786C193.504 196.627 188.795 199.395 182.867 196.956C175.862 199.477 168.521 199.876 161.253 200.271L161.253 200.271L161.253 200.271L161.253 200.272L161.253 200.272L161.253 200.272L161.253 200.272L161.253 200.272L161.252 200.272L161.252 200.272L161.252 200.272L161.252 200.272L161.252 200.272L161.252 200.272L161.252 200.272L161.251 200.272L161.251 200.272L161.251 200.272L161.251 200.272L161.251 200.272L161.251 200.272L161.251 200.272L161.25 200.272L161.25 200.272L161.25 200.272L161.25 200.272L161.25 200.272L161.25 200.272L161.25 200.272L161.249 200.272L161.249 200.272L161.249 200.272L161.249 200.272L161.249 200.272C157.154 200.494 153.083 200.716 149.109 201.315C137.754 202.989 126.397 204.581 115.04 206.173L115.04 206.173L115.039 206.173L115.039 206.173L115.039 206.173L115.038 206.173L115.038 206.173L115.038 206.173L115.037 206.173L115.037 206.173L115.037 206.173L115.036 206.174L115.036 206.174L115.036 206.174L115.035 206.174L115.035 206.174L115.035 206.174L115.034 206.174L115.034 206.174L115.034 206.174L115.033 206.174L115.033 206.174L115.033 206.174L115.032 206.174L115.032 206.174L115.032 206.174L115.031 206.174L115.031 206.174L115.031 206.175L115.03 206.175L115.03 206.175L115.029 206.175L115.029 206.175L115.029 206.175C103.675 207.766 92.3222 209.358 80.9715 211.031C74.8059 211.883 68.6508 213.062 62.832 214.555C60.5633 214.955 57.6963 217.004 56.783 218.99C56.3437 219.72 55.8719 220.451 55.3977 221.185C52.2 226.139 48.8971 231.255 54.7717 237.309C55.4442 237.939 55.5078 239.893 54.8777 240.566C53.4548 242.858 52.3182 245.317 51.1748 247.79C50.4878 249.277 49.7985 250.768 49.0431 252.231L47.6965 252.275L47.7703 254.542C47.4086 255.153 47.0285 255.755 46.6251 256.347L43.7961 256.439L39.7649 256.57L39.8962 260.603L39.8958 260.603L39.9111 261.074L39.9104 261.073L39.895 260.603L39.0438 260.631C27.3379 254.512 20.5419 245.273 20.9992 231.238L10.9049 231.566C5.56772 227.829 3.09751 222.042 1.26796 215.908C-0.225372 210.089 0.90749 204.836 6.02205 201.736C14.0142 196.912 22.017 192.414 30.3666 188.557C34.5361 186.465 37.7287 184.405 39.8702 180.098C47.5549 165.831 55.5757 151.88 63.5966 137.928L63.5968 137.928C64.2056 136.604 64.8145 135.28 65.7171 132.969C62.9808 133.411 60.2868 133.744 57.6416 134.072L57.6414 134.072C48.0616 135.258 39.123 136.365 31.1404 142.244C31.0153 142.127 30.8464 142.056 30.6659 141.98C30.3615 141.853 30.0239 141.712 29.8061 141.31C21.7049 132.772 23.0574 124.253 33.9908 119.659C42.351 116.127 51.058 113.236 60.1012 110.66C65.8988 108.515 72.0539 107.337 78.2089 106.159C82.0846 105.055 85.2984 103.646 87.7974 100.305C94.6218 89.652 101.457 79.3244 109.226 67.6625L87.4096 68.3728C79.2585 68.3123 71.4011 67.2642 65.9473 59.9445C64.5811 58.0332 63.215 56.1219 62.4896 53.8637C59.2515 44.516 61.131 42.173 71.183 40.5419C81.718 38.732 92.2504 36.8408 102.783 34.9495L102.783 34.9494L102.785 34.9491L102.787 34.9486C113.318 33.0577 123.849 31.1667 134.383 29.3571C138.07 28.9523 139.963 26.8661 142.061 24.5526C142.366 24.2167 142.675 23.8761 142.994 23.5352L143.842 22.5794C149.19 16.5523 154.283 10.8129 159.669 5.06398C161.559 3.04664 163.775 1.01867 166.033 0.293215C167.64 -0.411053 170.928 0.459804 171.948 1.73049C174.705 5.70214 177.118 9.86009 179.704 14.3158L179.704 14.3161L179.704 14.3163L179.706 14.3192C180.648 15.9419 181.612 17.6041 182.625 19.3111ZM304.811 133.008C299.422 133.957 294.401 134.895 289.606 135.79C284.308 136.78 279.286 137.718 274.351 138.563C266.253 140.13 252.984 133.065 249.81 125.671C248.076 122.468 249.619 119.81 252.181 118.423C256.34 116.006 260.195 114.25 264.375 112.484C281.747 105.399 299.865 101.224 318.698 98.9807C326.166 98.0856 330.966 95.3215 335.334 89.3119C352.458 64.6326 370.571 40.2472 392.056 19.3376C392.702 18.7048 393.349 18.0626 393.998 17.4173C397.156 14.2797 400.388 11.0685 404.09 8.51477C408.553 5.43573 410.518 5.69774 413.912 9.82483C419.068 16.2529 421.616 19.4291 421.662 22.6416C421.708 25.7796 419.367 28.9521 414.739 35.2235C410.675 40.5713 406.612 45.9191 403.189 50.92C400.892 51.1484 398.738 51.2998 396.694 51.4434C394.4 51.6046 392.246 51.7559 390.185 51.9954C390.19 52.131 390.194 52.2666 390.196 52.4052L388.355 52.4651L388.486 56.4976L392.519 56.3663L396.55 56.235L396.495 54.5384L396.495 54.5384L396.55 56.2349L398.457 56.1728C396.512 60.6677 393.721 64.1883 391.034 67.5771L391.034 67.5773C388.95 70.2065 386.928 72.7564 385.413 75.6205C382.697 80.755 379.267 85.7355 375.41 91.3363L375.409 91.3375L375.409 91.3379L375.409 91.3383L375.407 91.3407L375.398 91.3535C374.026 93.3454 372.601 95.4157 371.134 97.5993C374.959 97.3273 378.273 97.7391 381.415 98.1294C385.217 98.602 388.768 99.0431 392.668 98.2021C399.148 97.0132 406.386 99.0593 410.212 106.432C410.921 108.202 412.114 109.793 413.307 111.384C414.5 112.975 415.692 114.566 416.402 116.336C417.428 118.231 417.931 120.5 418.426 122.731C418.6 123.516 418.773 124.296 418.967 125.053C413.863 128.479 410.207 126.316 406.551 124.154C403.108 128.092 398.924 127.663 394.609 127.22L394.609 127.22L394.609 127.22L394.608 127.22L394.608 127.22L394.607 127.22L394.607 127.22L394.606 127.22L394.606 127.22L394.605 127.22L394.605 127.22L394.604 127.22L394.604 127.22L394.604 127.22L394.603 127.22L394.603 127.22L394.602 127.22L394.602 127.22L394.601 127.22L394.601 127.22L394.6 127.22L394.6 127.22L394.599 127.22L394.599 127.22L394.598 127.22L394.598 127.22L394.598 127.22L394.597 127.22L394.597 127.219L394.596 127.219L394.596 127.219L394.595 127.219L394.595 127.219L394.594 127.219C393.4 127.097 392.197 126.973 390.996 126.942C379.588 126.987 368.181 127.033 357.099 127.068C352.866 127.205 350.314 128.918 348.802 132.553C346.646 136.078 344.482 139.609 342.315 143.147L342.286 143.195L342.284 143.198L342.283 143.201L342.281 143.204C329.532 164.017 316.656 185.038 304.256 206.043C300.077 212.776 296.352 219.791 292.575 226.905C290.754 230.335 288.92 233.789 287.017 237.245C285.997 239.003 285.417 241.174 284.799 243.492L284.798 243.493C284.482 244.679 284.155 245.903 283.753 247.13C282.577 249.421 281.598 251.898 280.66 254.27L280.659 254.275L280.654 254.287C280.373 254.999 280.095 255.701 279.817 256.386C267.786 256.452 262.946 248.172 258.467 240.51L258.437 240.457C257.039 237.569 258.182 232.642 259.379 229.344C265.843 207.619 275.301 187.753 285.725 167.53C289.499 160.583 293.449 153.8 297.443 146.941L297.445 146.936C298.983 144.295 300.528 141.642 302.072 138.964C302.995 137.304 303.604 135.981 304.811 133.008ZM587.072 113.06C583.46 118.364 579.909 123.666 576.391 128.967C572.885 131.184 569.275 133.41 566.038 134.607C557.972 138.248 545.72 145.286 532.55 152.852L532.549 152.852L532.548 152.853C512.674 164.269 490.713 176.885 477.902 180.831C465.319 184.826 418.295 192.225 442.36 160.474C445.606 160.042 448.852 159.611 452.108 159.505C475.878 158.731 497.83 152.149 519.392 143.623C521.803 142.567 523.961 141.274 526.119 139.982L526.12 139.981C528.278 138.689 530.436 137.396 532.846 136.34C540.891 133.144 542.265 125.276 536.811 117.957C536.064 117.025 535.186 116.141 534.29 115.238C532.74 113.677 531.132 112.057 530.033 110.028C524.527 101.08 515.933 97.4484 506.458 96.779C499.263 96.0353 491.458 96.6154 484.022 98.4874C476.575 100.034 468.53 103.229 461.462 106.393C441.559 115.842 425.376 129.408 413.596 148.046C406.153 159.697 403.31 172.502 415.163 186.133C415.502 186.557 415.843 187.016 416.184 187.476C416.866 188.396 417.548 189.315 418.22 189.945C419.637 191.348 420.981 192.72 422.28 194.045L422.281 194.046L422.282 194.048L422.287 194.053L422.289 194.055L422.294 194.06L422.296 194.062L422.301 194.067L422.312 194.078L422.313 194.079C431.807 203.77 438.847 210.956 453.404 209.336C466.778 208.262 485.247 200.456 497.784 195.158L498.568 194.826C509.593 190.183 527.136 179.793 543.556 169.926L543.445 166.5L547.477 166.369L547.515 167.545L547.516 167.544L547.478 166.369L549.584 166.3L550.343 165.843L551.476 165.162L551.38 162.205L555.411 162.073L559.444 161.942L559.575 165.975L555.544 166.106L555.543 166.106L555.674 170.138L555.806 174.171L551.773 174.302L551.642 170.27L551.545 167.277L551.544 167.278L551.642 170.27L551.641 170.27L551.772 174.302L547.74 174.434L547.708 173.451C546.763 174.967 545.813 176.483 544.855 177.999C542.377 181.991 542.809 185.237 544.585 189.743C548.758 197.756 554.778 202.449 564.578 203.108C582.56 164.71 605.228 130.072 645.327 110.186C643.308 112.557 641.428 115.059 639.512 117.61L639.51 117.612L639.509 117.614C638.446 119.028 637.371 120.459 636.255 121.89C625.944 135.591 618.953 151.139 614.924 167.568C613.487 173.483 613.342 179.029 616.768 184.133C620.519 189.226 624.922 194.298 629.64 199.034C632.666 201.869 636.941 203.034 641.1 200.617C644.293 198.557 647.8 196.161 650.972 193.45C655.673 189.679 663.108 183.31 671.641 176C672.942 174.886 674.269 173.75 675.615 172.598C675.494 177.746 677.073 182.99 680.72 188.244C688.255 199.407 707.395 206.607 715.703 201.447C723.695 196.624 731.676 191.474 739.322 186.01C742.256 184.168 744.981 181.759 747.52 179.515C748.298 178.827 749.059 178.155 749.802 177.519C750.925 178.988 751.94 180.389 752.904 181.721C754.863 184.428 756.615 186.848 758.65 188.966C767.098 198.144 778.884 199.716 789.428 193.18C790.34 192.581 791.26 191.982 792.183 191.381C797.082 188.19 802.1 184.923 806.641 181.21L806.641 181.21C816.786 172.405 826.93 163.599 836.401 154.164C839.534 150.959 842.548 147.536 845.471 144.03L845.39 141.531L847.589 141.459C850.189 138.267 852.72 135.035 855.202 131.864L855.203 131.863L855.204 131.862C855.948 130.912 856.687 129.968 857.423 129.032C858.988 127.025 859.848 123.411 859.144 121.804C859.031 121.501 858.909 121.203 858.778 120.911L855.822 121.008L855.691 116.975L856.338 116.954C855.638 116.036 854.882 115.138 854.11 114.222C853.397 113.375 852.672 112.513 851.966 111.607C850.43 113.452 848.984 115.234 847.581 116.962L847.579 116.965C844.397 120.884 841.437 124.53 838.158 128.029C822.701 143.853 806.214 158.08 787.72 170.743C782.301 174.505 776.503 176.65 769.718 178.501C769.498 177.56 769.18 176.623 768.869 175.706C767.576 171.896 766.407 168.45 772.918 166.662C773.563 166.423 773.889 165.326 774.216 164.229L774.216 164.228C774.379 163.68 774.542 163.132 774.745 162.691C775.248 161.761 775.749 160.795 776.259 159.814L776.259 159.814C777.93 156.596 779.686 153.217 781.842 150.399C788.675 140.643 795.753 131 802.851 121.33L802.853 121.326C807.404 115.127 811.963 108.916 816.47 102.658C823.337 93.307 822.768 85.8283 814.047 78.289C812.702 77.0289 811.357 75.7688 810.338 74.4981C806.976 71.3479 804.402 72.4096 801.893 75.425C800.643 77.0955 799.72 78.7555 798.806 80.741C795.847 86.5012 791.504 91.2266 787.033 96.0924L787.032 96.0927L787.032 96.0934C784.555 98.7883 782.039 101.526 779.696 104.507C771.153 92.3984 760.386 92.097 748.79 96.3861C747.173 96.7648 745.24 97.4796 743.634 98.1839C727.869 104.565 715.173 115.083 703.159 126.557C699.461 130.232 696.358 134.207 693.499 138.299C689.423 141.538 685.22 144.9 680.993 148.281L680.978 148.292L680.976 148.294C663.461 162.302 645.548 176.629 634.688 183.875C635.337 182.369 635.92 180.983 636.462 179.696C637.941 176.179 639.108 173.405 640.461 170.974C645.629 161.903 650.926 152.953 656.195 144.052L656.196 144.051C659.414 138.613 662.622 133.192 665.784 127.774C669.185 122.122 672.251 116.155 674.329 109.893C677.593 100.008 664.006 83.1742 653.607 84.1647C649.374 84.3025 644.836 85.1022 640.667 87.1938C632.002 91.3875 623.348 95.9069 614.705 100.752C612.569 101.908 610.733 103.344 608.896 104.78C607.978 105.498 607.059 106.216 606.104 106.899C597.741 100.326 596.764 100.358 590.821 108.049L587.072 113.06ZM516.286 118.299C506.758 116.001 499.669 118.514 492.6 121.678C490.127 122.622 488.125 123.276 486.376 123.847C481.522 125.433 478.621 126.381 473.024 131.116C470.157 133.166 450.413 147.499 447.557 149.874C481.641 145.504 534.85 127.799 516.286 118.299ZM728.447 142.358C719.595 150.796 712.077 160.167 707.564 171.723C729.933 157.956 757.184 133.925 774.762 113.143C761 111.505 742.154 129.375 731.286 139.679C730.266 140.646 729.316 141.547 728.447 142.358ZM841.226 137.63L845.258 137.499L845.39 141.531L841.357 141.662L841.226 137.63ZM855.823 121.008L851.79 121.139L851.922 125.171L855.954 125.04L855.823 121.008ZM647.779 85.3953L651.811 85.264L651.942 89.2965L647.91 89.4278L647.779 85.3953ZM655.975 89.1654L651.943 89.2967L652.074 93.3292L656.106 93.1979L655.975 89.1654ZM559.314 157.91L563.346 157.778L563.478 161.811L559.445 161.942L559.314 157.91ZM238.683 11.9246L242.715 11.7933L242.847 15.8258L242.846 15.8258L242.978 19.8583L238.945 19.9896L238.814 15.9571L238.814 15.9571L238.683 11.9246ZM250.78 11.5306L246.747 11.6619L242.716 11.7932L242.847 15.8257L246.88 15.6944L250.911 15.5631L250.78 11.5306ZM246.879 15.6947L242.847 15.826L242.978 19.8584L247.011 19.7272L246.879 15.6947ZM234.913 20.1209L238.946 19.9896L239.077 24.0221L235.045 24.1534L234.913 20.1209ZM388.223 48.4325L384.191 48.5638L384.322 52.5962L388.354 52.4649L388.223 48.4325Z" fill="white"/>
</svg>
