<svg width="1440" height="1177" viewBox="0 0 1440 1177" fill="none" xmlns="http://www.w3.org/2000/svg">
<path d="M1215.76 677.365C1225.77 674.632 1234.33 671.466 1242.33 665.912C1269.64 647.216 1293.98 626.211 1316.8 602.849C1323.78 595.403 1329.78 587.507 1337.19 578.603C1341.2 583.766 1345.67 587.952 1347.78 593.659C1348.82 596.031 1347.55 601.366 1345.24 604.329C1335.54 616.676 1325.38 630.001 1314.21 641.434C1300.22 655.364 1285.24 668.365 1270.27 681.365C1262.3 687.881 1253.34 693.466 1244.86 699.036C1229.29 708.687 1211.89 706.366 1199.41 692.816C1194.93 688.149 1191.38 682.49 1186.35 675.916C1181.67 679.918 1176.54 684.898 1170.88 688.451C1159.59 696.519 1147.81 704.121 1136.01 711.243C1123.74 718.861 1095.48 708.231 1084.36 691.749C1073.25 675.748 1075.14 659.805 1085.24 645.038C1095.83 630.256 1103.97 614.11 1117.49 600.675C1135.22 583.735 1153.97 568.206 1177.24 558.786C1179.62 557.746 1182.47 556.69 1184.86 556.131C1201.98 549.799 1217.87 550.244 1230.49 568.121C1240.19 555.774 1251.91 546.248 1258.7 533.033C1260.05 530.102 1261.41 527.651 1263.26 525.185C1266.96 520.733 1270.76 519.165 1275.73 523.816C1277.23 525.692 1279.22 527.552 1281.2 529.413C1294.08 540.544 1294.92 551.585 1284.78 565.391C1267.74 589.046 1250.21 612.236 1233.65 635.875C1229.5 641.304 1226.35 648.144 1223.18 654.023C1222.28 655.977 1221.91 659.358 1220.48 659.886C1208.56 663.161 1214.08 670.2 1215.76 677.365ZM1154.82 624.004C1141.75 636.461 1130.65 650.298 1123.99 667.359C1157.02 647.033 1197.25 611.554 1223.2 580.871C1200.98 578.226 1169.77 610.042 1154.82 624.004Z" fill="#271815"/>
<path d="M1032.1 576.505C972.903 605.865 939.436 657.005 912.888 713.695C898.419 712.723 889.53 705.793 883.37 693.962C880.747 687.31 880.11 682.518 883.768 676.624C892.464 662.866 900.679 649.123 909.856 635.349C921.776 617.154 933.696 598.96 946.097 580.749C947.942 578.283 949.787 575.817 951.632 573.35C960.406 561.996 961.848 561.949 974.196 571.653C978.428 568.628 982.165 565.137 986.894 562.577C999.655 555.424 1012.43 548.752 1025.22 542.56C1031.38 539.472 1038.08 538.291 1044.33 538.088C1059.68 536.626 1079.74 561.479 1074.92 576.074C1071.85 585.318 1067.33 594.127 1062.31 602.472C1050 623.567 1037.21 644.678 1024.92 666.253C1022.19 671.154 1019.98 677.002 1016.4 685.3C1047.48 664.556 1117.72 604.518 1146.91 584.799C1151.89 589.93 1156.38 594.597 1160.89 600.225C1157.62 603.219 1155.78 605.685 1152.95 607.702C1127.94 622.954 1062.95 681.378 1040.44 699.436C1035.76 703.438 1030.58 706.976 1025.86 710.017C1019.72 713.586 1013.41 711.866 1008.94 707.68C1001.98 700.688 995.478 693.2 989.94 685.68C984.882 678.144 985.096 669.956 987.218 661.224C993.166 636.968 1003.49 614.013 1018.71 593.785C1023.33 587.86 1027.47 581.95 1032.1 576.505Z" fill="#271815"/>
<path d="M959.445 616.408C945.753 624.554 941.134 630.48 928.838 637.136C901.874 651.49 843.916 689.471 815.431 701.467C796.916 709.289 768.912 721.27 748.752 722.889C724.297 725.61 714.212 711.501 696.807 694.261C695.317 692.865 693.797 690.509 692.292 688.633C674.793 668.508 678.99 649.603 689.98 632.401C707.372 604.884 731.264 584.856 760.648 570.905C771.083 566.234 782.961 561.516 793.956 559.233C804.935 556.469 816.457 555.613 827.08 556.711C841.069 557.699 853.756 563.061 861.886 576.272C864.447 581.001 868.883 584.225 871.893 587.977C879.945 598.784 877.917 610.4 866.039 615.118C858.921 618.238 853.293 622.752 846.176 625.871C814.342 638.458 781.933 648.176 746.838 649.319C742.03 649.475 737.239 650.112 732.447 650.75C696.916 697.626 766.343 686.703 784.92 680.804C816.367 671.118 885.164 626.046 915.044 612.56C923.603 609.394 933.929 601.358 941.977 597.246C946.257 595.662 949.637 596.034 953.112 599.289C957.115 603.972 953.953 610.331 959.445 616.408ZM841.59 588.483C827.523 585.091 817.056 588.8 806.621 593.471C792.835 598.733 788.958 597.896 777.718 607.406C773.485 610.432 744.336 631.593 740.119 635.1C790.441 628.649 868.997 602.509 841.59 588.483Z" fill="#271815"/>
<path d="M529.37 610.199C512.622 613.151 498.278 616.024 484.399 618.401C472.443 620.715 452.853 610.284 448.166 599.368C445.606 594.639 447.884 590.714 451.668 588.666C457.808 585.097 463.498 582.506 469.67 579.899C495.317 569.438 522.067 563.274 549.872 559.962C560.898 558.641 567.984 554.56 574.433 545.687C599.715 509.251 626.456 473.249 658.177 442.378C663.773 436.902 669.354 430.945 675.944 426.399C682.534 421.853 685.434 422.24 690.445 428.333C705.493 447.094 705.493 447.094 691.666 465.832C685.666 473.727 679.667 481.622 674.614 489.006C667.418 489.721 661.168 489.925 655.415 490.593C655.446 491.555 655.478 492.516 655.044 493.974C658.906 494.33 662.752 494.205 668.536 494.498C663.671 507.65 653.81 515.19 648.369 525.473C642.929 535.757 635.55 545.622 627.288 557.923C639.772 557.035 648.566 561.08 659.08 558.813C668.648 557.057 679.334 560.078 684.982 570.963C687.077 576.189 692.026 580.359 694.121 585.585C696.169 589.368 696.807 594.16 697.909 598.455C690.373 603.513 684.976 600.32 679.578 597.127C673.082 604.557 664.8 601.458 656.611 601.244C639.77 601.311 622.928 601.378 606.567 601.429C600.317 601.633 596.549 604.162 594.318 609.528C572.385 645.374 549.986 681.717 528.549 718.028C519.404 732.763 511.732 748.413 503.099 764.094C500.82 768.019 500.031 773.338 498.28 778.689C496.017 783.094 494.251 787.964 492.469 792.353C474.665 792.452 467.528 780.172 460.903 768.837C458.839 764.573 460.527 757.299 462.293 752.429C471.837 720.355 485.801 691.025 501.191 661.167C508.91 646.96 517.125 633.217 525.325 618.993C526.689 616.543 527.588 614.588 529.37 610.199Z" fill="#271815"/>
<path d="M348.975 442.338C364.297 439.914 380.548 436.497 396.366 434.539C413.129 432.068 429.412 429.613 446.238 429.065C462.103 428.548 478.511 429.939 494.454 431.826C507.497 433.327 512.492 438.939 515.319 451.841C516.468 457.579 517.617 463.316 519.232 468.558C525.349 493.865 489.958 485.873 481.277 500.113C476.794 495.446 472.279 489.818 468.261 484.655C440.921 487.47 413.581 490.285 386.257 493.581C375.231 494.903 364.717 497.17 353.707 498.972C337.905 501.412 321.606 503.386 305.804 505.826C303.416 506.385 299.586 506.991 298.671 508.464C294.177 518.236 286.485 518.486 277.335 518.303C280.266 519.651 283.214 521.48 287.634 524.224C280.752 534.554 274.35 544.869 266.553 556.673C273.764 556.438 280.014 556.235 286.264 556.032C305.013 555.421 324.18 552.872 342.976 553.704C355.507 554.258 360.842 555.528 363.731 570.353C366.542 582.774 367.023 582.759 364.916 591.971C362.946 590.592 360.527 590.189 359.518 588.778C355.035 584.112 349.747 584.284 343.978 584.472C311.318 586.498 279.761 592.819 247.676 597.714C244.792 597.807 240.512 599.391 238.667 601.857C225.43 623.945 212.208 646.513 198.072 670.555C214.836 668.084 229.18 665.211 243.587 664.26C273.33 661.367 303.059 657.993 332.865 657.022C363.633 656.02 394.495 657.903 424.829 658.359C427.713 658.265 430.133 658.668 433.033 659.055C446.572 661.02 455.91 666.972 457.837 681.829C458.553 689.024 464.556 696.047 459.999 703.896C444.553 702.474 430.548 701.005 416.048 699.071C407.629 706.564 401.176 700.517 394.785 696.394C387.433 692.302 380.781 694.925 374.641 698.494C366.609 703.087 359.089 708.625 349.333 704.612C333.16 710.432 315.775 708.592 299.492 711.047C265.965 715.989 232.422 720.45 198.895 725.391C189.792 726.65 180.705 728.39 172.114 730.595C168.764 731.185 164.532 734.21 163.183 737.142C158.161 745.487 150.255 753.925 160.214 764.189C161.207 765.119 161.301 768.003 160.37 768.996C153.969 779.311 151.491 791.904 140.7 800.437C121.157 791.448 109.63 777.386 110.353 755.225C105.064 755.397 100.257 755.553 95.4494 755.71C87.5696 750.191 83.9226 741.647 81.2214 732.591C79.0167 724.001 80.6892 716.246 88.2403 711.669C100.04 704.547 111.855 697.906 124.182 692.211C130.338 689.123 135.052 686.082 138.213 679.723C149.559 658.659 161.401 638.061 173.243 617.462C174.142 615.508 175.041 613.554 176.374 610.141C157.703 613.156 140.364 612.758 125.325 623.835C124.829 623.37 123.867 623.401 123.355 622.455C111.394 609.851 113.391 597.273 129.533 590.491C141.876 585.277 154.731 581.008 168.082 577.205C176.642 574.038 185.729 572.299 194.816 570.559C200.538 568.929 205.283 566.85 208.973 561.917C219.048 546.189 229.14 530.941 240.61 513.724C229.072 514.099 218.496 514.444 208.4 514.772C196.366 514.683 184.765 513.135 176.713 502.329C174.696 499.507 172.68 496.685 171.609 493.351C166.828 479.55 169.603 476.091 184.443 473.683C215.551 468.339 246.643 462.514 277.751 457.17C283.985 456.485 286.744 452.546 290.465 448.574C298.821 439.158 306.712 430.239 315.084 421.304C317.874 418.325 321.146 415.331 324.48 414.26C326.852 413.22 331.706 414.506 333.211 416.382C338.766 424.383 343.374 432.895 348.975 442.338Z" fill="#271815"/>
<g opacity="0.7" filter="url(#filter0_f_518_616)">
<ellipse cx="720" cy="779.219" rx="720" ry="439.222" fill="#1F120F"/>
</g>
<defs>
<filter id="filter0_f_518_616" x="-340" y="-0.00292969" width="2120" height="1558.44" filterUnits="userSpaceOnUse" color-interpolation-filters="sRGB">
<feFlood flood-opacity="0" result="BackgroundImageFix"/>
<feBlend mode="normal" in="SourceGraphic" in2="BackgroundImageFix" result="shape"/>
<feGaussianBlur stdDeviation="170" result="effect1_foregroundBlur_518_616"/>
</filter>
</defs>
</svg>
