<svg width="108" height="56" viewBox="0 0 108 56" fill="none" xmlns="http://www.w3.org/2000/svg">
<g clip-path="url(#clip0_504_4678)">
<path d="M97.2863 28.48C98.1263 28.28 98.8463 28.04 99.5263 27.6C101.846 26.12 103.926 24.44 105.886 22.56C106.486 21.96 107.006 21.32 107.646 20.6C107.966 21.04 108.326 21.4 108.486 21.88C108.566 22.08 108.446 22.52 108.246 22.76C107.406 23.76 106.526 24.84 105.566 25.76C104.366 26.88 103.086 27.92 101.806 28.96C101.126 29.48 100.366 29.92 99.6463 30.36C98.3263 31.12 96.8863 30.88 95.8863 29.72C95.5263 29.32 95.2463 28.84 94.8463 28.28C94.4463 28.6 94.0063 29 93.5263 29.28C92.5663 29.92 91.5663 30.52 90.5663 31.08C89.5263 31.68 87.2063 30.72 86.3263 29.32C85.4463 27.96 85.6463 26.64 86.5263 25.44C87.4463 24.24 88.1663 22.92 89.3263 21.84C90.8463 20.48 92.4463 19.24 94.4063 18.52C94.6063 18.44 94.8463 18.36 95.0463 18.32C96.4863 17.84 97.8063 17.92 98.8063 19.44C99.6463 18.44 100.646 17.68 101.246 16.6C101.366 16.36 101.486 16.16 101.646 15.96C101.966 15.6 102.286 15.48 102.686 15.88C102.806 16.04 102.966 16.2 103.126 16.36C104.166 17.32 104.206 18.24 103.326 19.36C101.846 21.28 100.326 23.16 98.8863 25.08C98.5263 25.52 98.2463 26.08 97.9663 26.56C97.8863 26.72 97.8463 27 97.7263 27.04C96.7263 27.28 97.1663 27.88 97.2863 28.48ZM92.3663 23.88C91.2463 24.88 90.2863 26 89.6863 27.4C92.4863 25.8 95.9263 22.96 98.1663 20.48C96.3263 20.2 93.6463 22.76 92.3663 23.88Z" fill="white"/>
<path d="M81.0951 19.5999C76.0951 21.8799 73.1751 26.0399 70.8151 30.6799C69.6151 30.5599 68.8951 29.9599 68.4151 28.9599C68.2151 28.3999 68.1751 27.9999 68.4951 27.5199C69.2551 26.3999 69.9751 25.2799 70.7751 24.1599C71.8151 22.6799 72.8551 21.1999 73.9351 19.7199C74.0951 19.5199 74.2551 19.3199 74.4151 19.1199C75.1751 18.1999 75.2951 18.1999 76.2951 19.0399C76.6551 18.7999 76.9751 18.5199 77.3751 18.3199C78.4551 17.7599 79.5351 17.2399 80.6151 16.7599C81.1351 16.5199 81.6951 16.4399 82.2151 16.4399C83.4951 16.3599 85.0951 18.4799 84.6551 19.6799C84.3751 20.4399 83.9751 21.1599 83.5351 21.8399C82.4551 23.5599 81.3351 25.2799 80.2551 27.0399C80.0151 27.4399 79.8151 27.9199 79.4951 28.5999C82.1351 26.9599 88.1351 22.1599 90.6151 20.5999C91.0151 21.0399 91.3751 21.4399 91.7351 21.9199C91.4551 22.1599 91.2951 22.3599 91.0551 22.5199C88.9351 23.7199 83.3751 28.3999 81.4551 29.8399C81.0551 30.1599 80.6151 30.4399 80.2151 30.6799C79.6951 30.9599 79.1751 30.7999 78.8151 30.4399C78.2551 29.8399 77.7351 29.1999 77.2951 28.5599C76.8951 27.9199 76.9351 27.2399 77.1351 26.5199C77.6951 24.5199 78.6151 22.6399 79.9351 20.9999C80.3351 20.5199 80.6951 20.0399 81.0951 19.5999Z" fill="white"/>
<path d="M73.7495 22.72C72.5895 23.36 72.1895 23.84 71.1495 24.36C68.8695 25.48 63.9495 28.48 61.5495 29.4C59.9895 30 57.6295 30.92 55.9495 31C53.9095 31.16 53.1095 29.96 51.7095 28.48C51.5895 28.36 51.4695 28.16 51.3495 28C49.9495 26.28 50.3495 24.72 51.3095 23.32C52.8295 21.08 54.8695 19.48 57.3495 18.4C58.2295 18.04 59.2295 17.68 60.1495 17.52C61.0695 17.32 62.0295 17.28 62.9095 17.4C64.0695 17.52 65.1095 18 65.7495 19.12C65.9495 19.52 66.3095 19.8 66.5495 20.12C67.1895 21.04 66.9895 22 65.9895 22.36C65.3895 22.6 64.9095 22.96 64.3095 23.2C61.6295 24.16 58.9095 24.88 55.9895 24.88C55.5895 24.88 55.1895 24.92 54.7895 24.96C51.7095 28.76 57.5095 28.04 59.0695 27.6C61.7095 26.88 67.5495 23.32 70.0695 22.28C70.7895 22.04 71.6695 21.4 72.3495 21.08C72.7095 20.96 72.9895 21 73.2695 21.28C73.5895 21.68 73.3095 22.2 73.7495 22.72ZM64.0295 20.08C62.8695 19.76 61.9895 20.04 61.1095 20.4C59.9495 20.8 59.6295 20.72 58.6695 21.48C58.3095 21.72 55.8295 23.4 55.4695 23.68C59.6695 23.28 66.2695 21.32 64.0295 20.08Z" fill="white"/>
<path d="M36.8196 21.04C35.4196 21.24 34.2196 21.44 33.0596 21.6C32.0596 21.76 30.4596 20.84 30.0996 19.92C29.8996 19.52 30.0996 19.2 30.4196 19.04C30.9396 18.76 31.4196 18.56 31.9396 18.36C34.0996 17.56 36.3396 17.12 38.6596 16.92C39.5796 16.84 40.1796 16.52 40.7396 15.8C42.9396 12.84 45.2596 9.91999 47.9796 7.43999C48.4596 6.99999 48.9396 6.51999 49.4996 6.15999C50.0596 5.79999 50.2996 5.83999 50.6996 6.35999C51.8996 7.95999 51.8996 7.95999 50.6996 9.47999C50.1796 10.12 49.6596 10.76 49.2196 11.36C48.6196 11.4 48.0996 11.4 47.6196 11.44C47.6196 11.52 47.6196 11.6 47.5796 11.72C47.8996 11.76 48.2196 11.76 48.6996 11.8C48.2596 12.88 47.4196 13.48 46.9396 14.32C46.4596 15.16 45.8196 15.96 45.0996 16.96C46.1396 16.92 46.8596 17.28 47.7396 17.12C48.5396 17 49.4196 17.28 49.8596 18.2C50.0196 18.64 50.4196 19 50.5796 19.44C50.7396 19.76 50.7796 20.16 50.8596 20.52C50.2196 20.92 49.7796 20.64 49.3396 20.36C48.7796 20.96 48.0996 20.68 47.4196 20.64C46.0196 20.6 44.6196 20.56 43.2596 20.52C42.7396 20.52 42.4196 20.72 42.2196 21.16C40.2996 24.08 38.3396 27.04 36.4596 30C35.6596 31.2 34.9796 32.48 34.2196 33.76C34.0196 34.08 33.9396 34.52 33.7796 34.96C33.5796 35.32 33.4196 35.72 33.2596 36.08C31.7796 36.04 31.2196 35 30.6996 34.04C30.5396 33.68 30.6996 33.08 30.8596 32.68C31.7396 30.04 32.9796 27.64 34.3396 25.2C35.0196 24.04 35.7396 22.92 36.4596 21.76C36.5796 21.56 36.6596 21.4 36.8196 21.04Z" fill="white"/>
<path d="M21.0801 6.60003C22.3601 6.44002 23.7201 6.20003 25.0401 6.08002C26.4401 5.92002 27.8001 5.76002 29.2001 5.76002C30.5201 5.76002 31.8801 5.92002 33.2001 6.12002C34.2801 6.28002 34.6801 6.76003 34.8801 7.84003C34.9601 8.32002 35.0401 8.80002 35.1601 9.24002C35.6001 11.36 32.6801 10.6 31.9201 11.76C31.5601 11.36 31.2001 10.88 30.8801 10.44C28.6001 10.6 26.3201 10.76 24.0401 10.96C23.1201 11.04 22.2401 11.2 21.3201 11.32C20.0001 11.48 18.6401 11.6 17.3201 11.76C17.1201 11.8 16.8001 11.84 16.7201 11.96C16.3201 12.76 15.6801 12.76 14.9201 12.72C15.1601 12.84 15.4001 13 15.7601 13.24C15.1601 14.08 14.6001 14.92 13.9201 15.88C14.5201 15.88 15.0401 15.88 15.5601 15.88C17.1201 15.88 18.7201 15.72 20.2801 15.84C21.3201 15.92 21.7601 16.04 21.9601 17.28C22.1601 18.32 22.2001 18.32 22.0001 19.08C21.8401 18.96 21.6401 18.92 21.5601 18.8C21.2001 18.4 20.7601 18.4 20.2801 18.4C17.5601 18.48 14.9201 18.92 12.2401 19.24C12.0001 19.24 11.6401 19.36 11.4801 19.56C10.3201 21.36 9.16013 23.2 7.92013 25.16C9.32013 25 10.5201 24.8 11.7201 24.76C14.2001 24.6 16.6801 24.4 19.1601 24.4C21.7201 24.4 24.2801 24.64 26.8001 24.76C27.0401 24.76 27.2401 24.8 27.4801 24.84C28.6001 25.04 29.3601 25.56 29.4801 26.8C29.5201 27.4 30.0001 28 29.6001 28.64C28.3201 28.48 27.1601 28.32 25.9601 28.12C25.2401 28.72 24.7201 28.2 24.2001 27.84C23.6001 27.48 23.0401 27.68 22.5201 27.96C21.8401 28.32 21.2001 28.76 20.4001 28.4C19.0401 28.84 17.6001 28.64 16.2401 28.8C13.4401 29.12 10.6401 29.4 7.84013 29.72C7.08013 29.8 6.32013 29.92 5.60013 30.08C5.32013 30.12 4.96013 30.36 4.84013 30.6C4.40013 31.28 3.72013 31.96 4.52013 32.84C4.60013 32.92 4.60013 33.16 4.52013 33.24C3.96013 34.08 3.72013 35.12 2.80013 35.8C1.20013 35 0.280131 33.8 0.400131 31.96C-0.0398693 31.96 -0.439869 31.96 -0.839869 31.96C-1.47987 31.48 -1.75987 30.76 -1.95987 30C-2.11987 29.28 -1.95987 28.64 -1.31987 28.28C-0.319869 27.72 0.680131 27.2 1.72013 26.76C2.24013 26.52 2.64013 26.28 2.92013 25.76C3.92013 24.04 4.96013 22.36 6.00013 20.68C6.08013 20.52 6.16013 20.36 6.28013 20.08C4.72013 20.28 3.28013 20.2 2.00013 21.08C1.96013 21.04 1.88013 21.04 1.84013 20.96C0.880131 19.88 1.08013 18.84 2.44013 18.32C3.48013 17.92 4.56013 17.6 5.68013 17.32C6.40013 17.08 7.16013 16.96 7.92013 16.84C8.40013 16.72 8.80013 16.56 9.12013 16.16C10.0001 14.88 10.8801 13.64 11.8801 12.24C10.9201 12.24 10.0401 12.24 9.20013 12.24C8.20013 12.2 7.24013 12.04 6.60013 11.12C6.44013 10.88 6.28013 10.64 6.20013 10.36C5.84013 9.20003 6.08013 8.92002 7.32013 8.76003C9.92013 8.40003 12.5201 8.00003 15.1201 7.64003C15.6401 7.60002 15.8801 7.28003 16.2001 6.96003C16.9201 6.20003 17.6001 5.48003 18.3201 4.76003C18.5601 4.52003 18.8401 4.28002 19.1201 4.20003C19.3201 4.12002 19.7201 4.24002 19.8401 4.40002C20.2801 5.08003 20.6401 5.80003 21.0801 6.60003Z" fill="white"/>
<path d="M99.3858 52.1299C98.8572 52.1299 98.3718 52.0476 97.9298 51.8829C97.4965 51.7096 97.1195 51.4583 96.7988 51.1289L97.3578 50.1799L97.4098 50.0629L97.5008 50.1149C97.5182 50.1756 97.5398 50.2449 97.5658 50.3229C97.6005 50.3923 97.6655 50.4789 97.7608 50.5829C97.9862 50.7649 98.2418 50.9123 98.5278 51.0249C98.8138 51.1289 99.1345 51.1809 99.4898 51.1809C99.7238 51.1809 99.9362 51.1506 100.127 51.0899C100.317 51.0206 100.482 50.9296 100.621 50.8169C100.768 50.7043 100.881 50.5699 100.959 50.4139C101.037 50.2579 101.076 50.0889 101.076 49.9069C101.076 49.7683 101.058 49.6426 101.024 49.5299C100.998 49.4173 100.946 49.3133 100.868 49.2179C100.79 49.1226 100.686 49.0273 100.556 48.9319C100.426 48.8366 100.257 48.7326 100.049 48.6199C99.8408 48.5073 99.5895 48.3859 99.2948 48.2559C98.7402 48.0306 98.2982 47.7923 97.9688 47.5409C97.6482 47.2896 97.4185 47.0209 97.2798 46.7349C97.1412 46.4489 97.0718 46.1413 97.0718 45.8119C97.0718 45.4133 97.1758 45.0623 97.3838 44.7589C97.5918 44.4556 97.8822 44.2173 98.2548 44.0439C98.6362 43.8706 99.0782 43.7839 99.5808 43.7839C99.8928 43.7839 100.187 43.8273 100.465 43.9139C100.751 43.9919 101.015 44.1046 101.258 44.2519C101.5 44.3993 101.717 44.5856 101.908 44.8109L101.284 45.5909L101.206 45.6949L101.115 45.6299C101.106 45.5606 101.089 45.4913 101.063 45.4219C101.037 45.3526 100.976 45.2659 100.881 45.1619C100.69 44.9799 100.486 44.8586 100.27 44.7979C100.053 44.7286 99.7932 44.6939 99.4898 44.6939C99.2905 44.6939 99.1085 44.7199 98.9438 44.7719C98.7878 44.8239 98.6535 44.9019 98.5408 45.0059C98.4282 45.1099 98.3372 45.2269 98.2678 45.3569C98.2072 45.4783 98.1768 45.6083 98.1768 45.7469C98.1768 45.8856 98.1942 46.0113 98.2288 46.1239C98.2635 46.2279 98.3198 46.3319 98.3978 46.4359C98.4758 46.5399 98.5842 46.6483 98.7228 46.7609C98.8702 46.8649 99.0522 46.9733 99.2688 47.0859C99.4942 47.1899 99.7628 47.3069 100.075 47.4369C100.482 47.6103 100.82 47.7793 101.089 47.9439C101.357 48.1086 101.565 48.2863 101.713 48.4769C101.869 48.6589 101.981 48.8583 102.051 49.0749C102.12 49.2829 102.155 49.5213 102.155 49.7899C102.155 50.1626 102.059 50.5309 101.869 50.8949C101.678 51.2589 101.379 51.5579 100.972 51.7919C100.564 52.0173 100.036 52.1299 99.3858 52.1299Z" fill="white"/>
<path d="M89.2073 51.9999V44.8499H86.9453V43.8879H92.6523V44.8499H90.2993V51.9999H89.2073Z" fill="white"/>
<path d="M77.5586 43.9009H78.6506L81.8356 49.6859L81.8096 43.9009H82.8236H82.9536V44.0049C82.9016 44.0569 82.8669 44.1132 82.8496 44.1739C82.8409 44.2345 82.8366 44.3385 82.8366 44.4859V51.9999H81.9006L78.5726 45.8639V51.9999H77.5586V43.9009Z" fill="white"/>
<path d="M72.0202 49.7899H69.0042L69.1992 48.9709H71.7992L72.0202 49.7899ZM70.5772 46.0849L68.6142 51.9999H67.5352L70.4342 43.7839H70.7462L73.6452 51.9999H72.5272L70.5772 46.0849Z" fill="white"/>
<path d="M60.346 51.9999V44.8499H58.084V43.8879H63.791V44.8499H61.438V51.9999H60.346Z" fill="white"/>
<path d="M49.1016 51.9999V51.0899H50.7006V44.8109H49.1926V43.9009H53.3656V44.8109H51.7666V51.1029H53.4436V51.9999H49.1016Z" fill="white"/>
<path d="M39.0527 51.9999V43.9009H41.4187C41.8867 43.9009 42.2941 43.9485 42.6407 44.0439C42.9874 44.1392 43.2734 44.2779 43.4987 44.4599C43.7241 44.6332 43.8887 44.8412 43.9927 45.0839C44.1054 45.3265 44.1617 45.5952 44.1617 45.8899C44.1617 46.1325 44.1141 46.3752 44.0187 46.6179C43.9321 46.8519 43.8021 47.0642 43.6287 47.2549C43.4554 47.4369 43.2387 47.5755 42.9787 47.6709C43.2041 47.7575 43.4077 47.8702 43.5897 48.0089C43.7804 48.1475 43.9407 48.3079 44.0707 48.4899C44.2007 48.6632 44.3004 48.8539 44.3697 49.0619C44.4477 49.2699 44.4867 49.4822 44.4867 49.6989C44.4867 50.0455 44.4217 50.3619 44.2917 50.6479C44.1704 50.9252 43.9841 51.1679 43.7327 51.3759C43.4814 51.5752 43.1607 51.7312 42.7707 51.8439C42.3807 51.9479 41.9257 51.9999 41.4057 51.9999H39.0527ZM40.1447 51.0639H41.5617C41.9171 51.0639 42.2247 51.0162 42.4847 50.9209C42.7534 50.8255 42.9614 50.6739 43.1087 50.4659C43.2561 50.2579 43.3297 49.9892 43.3297 49.6599C43.3297 49.3565 43.2647 49.0922 43.1347 48.8669C43.0047 48.6329 42.7967 48.4509 42.5107 48.3209C42.2247 48.1822 41.8347 48.1129 41.3407 48.1129H40.1447V51.0639ZM40.1447 47.2159H41.2887C41.7307 47.2159 42.0817 47.1639 42.3417 47.0599C42.6017 46.9559 42.7837 46.8129 42.8877 46.6309C43.0004 46.4402 43.0567 46.2322 43.0567 46.0069C43.0567 45.8335 43.0264 45.6775 42.9657 45.5389C42.9051 45.3915 42.8097 45.2659 42.6797 45.1619C42.5584 45.0492 42.3937 44.9625 42.1857 44.9019C41.9777 44.8412 41.7264 44.8109 41.4317 44.8109H40.1447V47.2159Z" fill="white"/>
<path d="M33.5416 49.7899H30.5256L30.7206 48.9709H33.3206L33.5416 49.7899ZM32.0986 46.0849L30.1356 51.9999H29.0566L31.9556 43.7839H32.2676L35.1666 51.9999H34.0486L32.0986 46.0849Z" fill="white"/>
<path d="M19.8398 43.9009H20.9578H21.0878V44.0049C21.0358 44.0569 21.0012 44.1132 20.9838 44.1739C20.9752 44.2345 20.9708 44.3385 20.9708 44.4859V47.3069H23.9088V43.9009H25.0268H25.1568V44.0049C25.1048 44.0569 25.0702 44.1132 25.0528 44.1739C25.0442 44.2345 25.0398 44.3385 25.0398 44.4859V51.9999H23.9088V48.2169H20.9708V51.9999H19.8398V43.9009Z" fill="white"/>
<path d="M10.2188 43.9009H11.3108L14.4957 49.6859L14.4697 43.9009H15.4838H15.6137V44.0049C15.5617 44.0569 15.5271 44.1132 15.5097 44.1739C15.5011 44.2345 15.4967 44.3385 15.4967 44.4859V51.9999H14.5608L11.2327 45.8639V51.9999H10.2188V43.9009Z" fill="white"/>
<path d="M1.00195 51.9999V51.0899H2.60095V44.8109H1.09295V43.9009H5.26595V44.8109H3.66695V51.1029H5.34395V51.9999H1.00195Z" fill="white"/>
</g>
<defs>
<clipPath id="clip0_504_4678">
<rect width="108" height="56" fill="white"/>
</clipPath>
</defs>
</svg>
