<svg width="889" height="302" viewBox="0 0 889 302" fill="none" xmlns="http://www.w3.org/2000/svg">
<path d="M111.184 101.948C126.64 105.902 140.657 109.137 154.675 113.09C170.849 118.122 187.383 122.795 203.198 128.905C218.653 134.656 233.749 141.485 248.845 148.314C260.347 153.705 268.254 161.613 270.051 174.912C270.77 180.303 273.286 185.695 274.364 191.086C276.88 199.712 273.645 207.26 266.457 212.652C256.752 219.84 245.251 223.075 233.749 224.872C207.87 229.185 181.991 232.42 155.753 235.295C138.141 237.093 120.17 238.53 102.558 238.53C89.2592 238.89 76.3198 241.046 63.3804 237.452C56.5513 241.406 49.7222 237.811 43.2525 238.171C35.7045 238.53 28.516 236.733 20.968 236.733C11.9823 236.374 0.121239 219.84 1.55895 211.214C1.91838 209.417 4.07494 207.26 5.87208 206.541C9.10692 205.463 13.0606 204.744 16.6549 204.385C33.9074 202.947 51.1599 201.509 68.4124 200.072C105.074 197.196 142.095 195.04 178.397 191.445C194.931 190.008 211.105 186.413 227.279 183.538C230.874 182.819 234.468 181.022 240.219 179.225C235.906 176.709 233.03 174.193 229.795 173.115C192.774 159.816 156.113 146.876 117.654 138.25C109.387 136.094 101.48 133.218 93.5723 130.343C80.2735 125.311 68.4124 106.98 68.4124 92.9623C68.053 87.9303 69.4907 84.336 73.8038 82.1795C83.1489 77.1475 92.1346 71.7561 101.839 68.1618C153.597 49.1122 206.432 35.8134 260.706 26.1088C277.24 23.2334 293.773 21.0768 310.307 18.9203C316.058 18.5608 321.809 19.6391 327.919 19.6391C329.357 19.6391 330.794 19.2797 332.232 18.9203C345.531 16.4043 353.798 21.7957 357.392 34.3756C358.111 37.6105 359.548 41.2048 360.267 44.799C361.705 52.347 358.111 58.4573 350.203 59.895C346.25 60.2544 343.734 62.0515 340.858 64.2081C337.623 66.0052 333.31 66.7241 329.716 67.4429C319.652 69.2401 310.307 71.7561 299.884 68.1618C296.289 67.0835 291.617 69.2401 288.022 68.1618C281.553 65.2864 275.442 61.3327 267.895 56.6601C232.311 60.2544 138.86 88.6491 111.184 101.948ZM339.395 137.531C326.815 139.328 316.032 141.126 305.609 142.563C296.623 144.001 282.246 135.734 279.011 127.467C277.214 123.873 279.011 120.998 281.887 119.56C286.559 117.044 290.873 115.247 295.545 113.45C314.954 106.261 335.082 102.307 355.929 100.51C364.196 99.7914 369.587 96.916 374.619 90.4463C394.388 63.8487 415.234 37.6105 439.675 15.326C443.989 11.3723 448.302 7.05916 453.334 3.82434C458.366 0.589491 460.522 0.948913 464.117 5.62147C474.899 19.9985 474.899 19.9985 464.117 33.6568C459.444 39.4076 454.771 45.1584 450.818 50.5499C445.426 50.9093 440.754 50.9093 436.441 51.2687C436.441 51.9876 436.441 52.7064 436.081 53.7847C438.957 54.1441 441.832 54.1441 446.145 54.5036C442.191 64.2081 434.643 69.5995 430.33 77.1475C426.017 84.6955 420.266 91.884 413.797 100.87C423.142 100.51 429.611 103.745 437.519 102.307C444.707 101.229 452.615 103.745 456.569 112.012C458.006 115.966 461.601 119.2 463.038 123.154C464.476 126.03 464.835 129.624 465.554 132.859C459.803 136.453 455.85 133.937 451.896 131.421C446.864 136.812 440.754 134.296 434.643 133.937C422.064 133.578 409.484 133.218 397.263 132.859C392.59 132.859 389.715 134.656 387.918 138.61C370.665 164.848 353.053 191.445 336.16 218.043C328.972 228.826 322.862 240.327 316.032 251.829C314.235 254.705 313.516 258.658 312.079 262.612C310.282 265.847 308.844 269.441 307.406 272.676C294.107 272.316 289.075 262.971 284.403 254.345C282.965 251.11 284.403 245.719 285.841 242.125C293.748 218.402 304.89 196.837 317.111 174.912C323.221 164.488 329.691 154.424 336.16 144.001C337.239 142.204 337.958 140.766 339.395 137.531ZM562.322 161.613C573.464 154.424 597.905 140.047 607.969 133.937C610.844 136.812 615.517 140.047 613.72 145.798C612.282 150.471 608.328 153.346 604.015 151.549C601.14 154.784 599.343 158.378 596.467 159.816C587.122 165.207 562.681 178.147 553.336 183.179C548.663 185.695 543.631 188.929 540.037 192.883C528.176 205.463 514.158 215.886 499.422 224.872C494.749 227.747 488.998 228.826 483.607 230.263C479.294 231.342 474.981 230.263 470.668 227.388C462.041 221.997 454.853 215.527 450.18 205.822C446.586 198.274 446.227 190.726 448.383 182.819C451.618 170.599 458.088 160.175 465.636 150.83C475.7 138.25 485.404 124.592 499.062 115.247C505.532 111.293 511.642 106.98 518.112 103.026C520.987 101.229 523.863 100.151 527.098 103.026C528.535 104.105 530.692 104.464 532.489 104.464C544.35 104.823 552.617 110.215 557.29 120.998C558.727 123.873 560.524 126.748 562.322 129.624C565.916 135.734 566.275 142.563 564.838 149.752C564.119 152.627 563.4 155.862 562.322 161.613ZM489.717 168.801C487.201 168.083 485.045 164.129 480.013 168.801C484.685 168.801 487.201 168.801 490.077 168.801C488.28 172.396 486.482 176.349 484.685 179.944C481.81 185.335 478.934 190.367 476.059 195.758C476.778 196.477 477.497 196.837 478.216 197.556C487.92 191.805 497.625 186.413 507.689 180.663C504.094 173.474 501.219 167.723 498.344 161.613C495.468 164.129 492.593 166.645 489.717 168.801ZM514.518 173.474C530.692 160.894 541.834 146.876 546.147 127.467C537.881 125.67 532.489 125.67 526.379 133.218C517.753 144.001 514.877 155.503 512.721 167.723C512.361 168.801 513.439 170.239 514.518 173.474ZM680.424 132.859C671.439 134.296 663.891 138.969 656.343 142.923C652.748 144.72 648.795 146.517 645.56 148.674C643.403 150.111 641.966 152.268 639.809 154.065C634.418 158.378 629.026 162.691 623.635 167.004C616.087 173.115 609.977 180.663 604.945 189.289C596.678 204.025 588.052 218.043 579.425 232.42C569.002 228.466 561.094 222.716 556.781 212.292C555.344 208.338 555.703 204.744 557.86 201.15C569.002 183.538 578.706 165.567 590.927 148.674C604.585 128.905 619.681 110.215 638.731 95.4783C644.122 91.5246 649.873 88.2897 655.624 85.7737C663.172 82.1795 666.407 83.6172 670.36 90.4463C671.079 92.2434 672.157 94.0406 672.876 95.8377C676.111 102.667 675.392 106.621 670.001 112.371C669.282 113.809 668.204 114.887 666.047 118.122C677.549 113.809 682.581 119.56 686.535 126.748C690.848 134.656 697.317 137.531 705.584 135.734C713.132 134.296 720.68 131.78 728.228 129.624C731.463 128.546 734.338 127.467 737.933 126.389C740.449 130.343 742.965 134.296 745.481 138.61C734.698 147.236 723.196 153.346 709.897 154.065C701.271 154.424 693.004 149.033 687.253 141.844C685.097 138.969 682.94 136.094 680.424 132.859ZM657.421 119.56C657.78 119.919 658.14 120.638 658.14 120.998C659.937 120.279 661.734 119.56 663.531 118.841C663.531 118.122 663.172 117.403 662.812 117.044C661.015 117.763 659.218 118.841 657.421 119.56ZM818.169 168.801C810.621 173.833 804.87 178.147 799.12 182.1C789.415 187.851 780.07 193.961 770.006 199.712C754.91 207.26 741.611 201.509 729.75 192.164C715.732 180.663 713.216 171.317 718.967 153.346C725.437 135.375 734.063 117.763 746.643 103.026C748.081 100.87 750.597 98.7131 752.753 97.2754C758.864 92.2434 759.223 92.2434 765.333 97.2754C767.849 99.7914 770.365 101.589 773.241 103.745C776.476 106.621 777.913 110.574 775.397 114.887C774.319 117.044 774.319 119.56 773.6 122.076C771.444 123.154 768.568 124.232 767.849 126.389C759.223 141.126 753.113 156.581 748.44 173.115C748.081 173.474 748.081 173.833 748.44 175.271C744.846 200.072 819.247 141.126 863.816 105.183C865.973 103.386 867.411 103.386 868.489 102.667C875.678 106.98 882.507 111.293 888.257 115.247C876.396 138.61 865.614 161.253 854.112 183.538C844.407 203.306 833.984 222.356 823.561 242.125C815.653 256.861 805.23 269.8 794.447 281.662C788.696 288.85 781.867 294.601 773.241 297.476C769.287 298.555 767.131 298.195 764.255 295.679C761.739 300.352 757.426 301.071 752.753 299.992C729.031 295.32 707.825 285.615 690.932 267.644C686.978 263.69 683.384 259.018 679.79 253.986C679.071 252.907 679.071 249.313 679.79 247.875C681.946 245 684.462 245.359 686.978 247.157C688.775 248.594 690.932 250.032 692.37 251.47C699.558 259.018 708.184 262.971 717.889 265.847C725.078 268.003 731.907 266.566 737.657 263.69C752.753 257.939 763.536 246.797 773.241 235.295C789.774 216.246 803.073 194.321 816.372 173.474C816.731 172.396 816.731 171.677 818.169 168.801Z" fill="#32201B"/>
</svg>
