<svg width="24" height="24" viewBox="0 0 24 24" fill="none" xmlns="http://www.w3.org/2000/svg">
<path fill-rule="evenodd" clip-rule="evenodd" d="M24 12C24 12.4287 23.9775 12.8521 23.9337 13.2692C23.9076 13.5169 23.6954 13.7 23.4464 13.7L0.553586 13.7C0.304566 13.7 0.0923566 13.5169 0.0663225 13.2692C0.022479 12.8521 0 12.4287 0 12C0 11.4639 0.0351592 10.9359 0.103298 10.4184C0.135176 10.1763 0.344804 10 0.589021 10L23.411 10C23.6552 10 23.8648 10.1763 23.8967 10.4184C23.9648 10.9359 24 11.4639 24 12ZM2.30904 18.7C2.14279 18.7 1.98679 18.6178 1.89692 18.4779C1.33116 17.5973 0.877367 16.638 0.555656 15.62C0.457207 15.3084 0.696321 15 1.02304 15L22.977 15C23.3037 15 23.5428 15.3084 23.4443 15.62C23.1226 16.638 22.6688 17.5973 22.1031 18.4779C22.0132 18.6178 21.8572 18.7 21.691 18.7L2.30904 18.7ZM4.17411 20C3.74187 20 3.52225 20.5037 3.83907 20.7978C5.98035 22.785 8.84828 24 12 24C15.1517 24 18.0196 22.785 20.1609 20.7978C20.4777 20.5037 20.2581 20 19.8259 20L4.17411 20ZM1.12213 8.7C0.789996 8.7 0.550185 8.38197 0.658965 8.06816C1.01348 7.04544 1.50243 6.08554 2.10468 5.20959C2.19583 5.07702 2.34746 5 2.50834 5L21.4917 5C21.6525 5 21.8042 5.07702 21.8953 5.2096C22.4976 6.08554 22.9865 7.04544 23.341 8.06816C23.4498 8.38197 23.21 8.7 22.8779 8.7L1.12213 8.7ZM12 0C9.0143 0 6.28328 1.0904 4.18344 2.8947C3.84949 3.18165 4.06446 3.7 4.50475 3.7L19.4953 3.7C19.9355 3.7 20.1505 3.18165 19.8166 2.8947C17.7167 1.0904 14.9857 0 12 0Z" fill="white"/>
</svg>
